<svg id="Warstwa_1" data-name="Warstwa 1" xmlns="http://www.w3.org/2000/svg" viewBox="0 0 1999 2006"><defs><style>.cls-3{fill:#fff}</style></defs><path d="M1926 99a23.38 23.38 0 00-23.31-23.31H96.46A23.38 23.38 0 0073.15 99v1806.25a23.38 23.38 0 0023.31 23.31h1335.42L1926 1434.44z" fill="#ffee4d"/><path fill="#f9db00" d="M1434.63 1928.56v-489.43H1926"/><path class="cls-3" d="M1330.63 399.36c-96.17-91.78-222.73-138.46-355.55-132.19-249.67 11.9-450.79 217.08-457.36 467.38-4.08 153.81 66.41 301.36 188.58 395 60.15 46 95.86 121.23 95.86 201.11v20.68c-32.58 8.77-57 38.53-57 73.93v11.28a77 77 0 0077.07 77.06h13.15a77.74 77.74 0 00-4.7 25.69v11.27a77 77 0 0077.07 77.07h181.69a77 77 0 0077.06-77.07v-11.27a77.74 77.74 0 00-4.7-25.69h13.16a77 77 0 0077.06-77.06v-11.28a76.6 76.6 0 00-57-73.93v-20.68c0-79.25 37.59-154.43 103.06-206.75 115.59-91.78 181.69-229 181.69-376.22-.03-132.81-52.97-256.54-149.14-348.33zM1115.1 1550.28a25.8 25.8 0 01-25.68 25.69H907.73a25.8 25.8 0 01-25.73-25.69V1539a25.8 25.8 0 0125.69-25.68h181.69a25.59 25.59 0 0125.72 25.68zm85.52-125v11.28a25.8 25.8 0 01-25.68 25.68H822.21a25.8 25.8 0 01-25.69-25.68v-11.28a25.8 25.8 0 0125.69-25.69h352.73a25.8 25.8 0 0125.68 25.7zm-284.75-418.51h-52.63a38.5 38.5 0 01-38.53-38.53v-14.09a38.51 38.51 0 0138.53-38.54h14.1a38.51 38.51 0 0138.53 38.54zm51.38 341.46v-290.39h62.65v290.39zm298.85-264.39c-77.69 61.71-122.18 151.61-122.18 246.84v17.55h-62.65v-290.39h52.63a90.12 90.12 0 0089.91-89.91v-14.1a90.11 90.11 0 00-89.91-89.9h-14.1a90.11 90.11 0 00-89.9 89.9v52.63h-62.65v-52.63a90.11 90.11 0 00-89.91-89.9h-14.1a90.11 90.11 0 00-89.9 89.9v14.1a90.11 90.11 0 0089.9 89.91h52.63v290.39h-62.65v-17.54c0-95.86-43.54-186.08-116.22-241.84-109-83.64-172-215.53-168.54-353 6-223.35 185.45-406.61 408.5-417.26 118.72-5.64 231.81 36.34 317.64 118.1 85.84 82.07 133.14 192.34 133.14 311.07.63 131.52-58.58 254-161.64 336.08zm-184.83-77.07v-52.62a38.51 38.51 0 0138.53-38.54h14.1a38.51 38.51 0 0138.53 38.54v14.09a38.5 38.5 0 01-38.53 38.53z"/><path class="cls-3" d="M885.72 1623.1a77.84 77.84 0 00-4.7 25.69v11.28a77 77 0 0077.07 77.06H1046a77 77 0 0077.06-77.06v-11.28a77.84 77.84 0 00-4.7-25.69l-72.36-.31a25.6 25.6 0 0125.68 25.69v11.27a25.8 25.8 0 01-25.68 25.69h-87.91a25.8 25.8 0 01-25.69-25.69v-11.27a25.8 25.8 0 0125.69-25.69z"/></svg>